<mxfile host="app.diagrams.net" agent="Mozilla/5.0 (Windows NT 10.0; Win64; x64) AppleWebKit/537.36 (KHTML, like Gecko) Chrome/132.0.0.0 Safari/537.36 Edg/132.0.0.0" version="26.0.10">
  <diagram name="Page-1" id="zhnkzlj7r6Azo-q6BEJL">
    <mxGraphModel dx="802" dy="1608" grid="1" gridSize="10" guides="1" tooltips="1" connect="1" arrows="1" fold="1" page="1" pageScale="1" pageWidth="850" pageHeight="1100" math="0" shadow="0">
      <root>
        <mxCell id="0" />
        <mxCell id="1" parent="0" />
        <mxCell id="ud-VxVPDWCNM-HSFa2yf-1" value="TPGS-PU&lt;div&gt;USB processor&lt;/div&gt;" style="whiteSpace=wrap;html=1;aspect=fixed;" parent="1" vertex="1">
          <mxGeometry x="400" y="160" width="120" height="120" as="geometry" />
        </mxCell>
        <mxCell id="ud-VxVPDWCNM-HSFa2yf-31" style="edgeStyle=orthogonalEdgeStyle;rounded=0;orthogonalLoop=1;jettySize=auto;html=1;entryX=0;entryY=0.5;entryDx=0;entryDy=0;" parent="1" source="ud-VxVPDWCNM-HSFa2yf-12" target="ud-VxVPDWCNM-HSFa2yf-19" edge="1">
          <mxGeometry relative="1" as="geometry" />
        </mxCell>
        <mxCell id="ud-VxVPDWCNM-HSFa2yf-12" value="Antenna 1 X USB" style="rounded=0;whiteSpace=wrap;html=1;fillColor=#ffe6cc;strokeColor=#d79b00;" parent="1" vertex="1">
          <mxGeometry x="150" y="160" width="140" height="30" as="geometry" />
        </mxCell>
        <mxCell id="ud-VxVPDWCNM-HSFa2yf-19" value="NIC" style="rounded=0;whiteSpace=wrap;html=1;fillColor=#d5e8d4;strokeColor=#82b366;" parent="1" vertex="1">
          <mxGeometry x="350" y="160" width="50" height="30" as="geometry" />
        </mxCell>
        <mxCell id="ud-VxVPDWCNM-HSFa2yf-21" value="NIC" style="rounded=0;whiteSpace=wrap;html=1;fillColor=#d5e8d4;strokeColor=#82b366;" parent="1" vertex="1">
          <mxGeometry x="350" y="190" width="50" height="30" as="geometry" />
        </mxCell>
        <mxCell id="ud-VxVPDWCNM-HSFa2yf-23" value="NIC" style="rounded=0;whiteSpace=wrap;html=1;fillColor=#d5e8d4;strokeColor=#82b366;" parent="1" vertex="1">
          <mxGeometry x="350" y="220" width="50" height="30" as="geometry" />
        </mxCell>
        <mxCell id="ud-VxVPDWCNM-HSFa2yf-24" value="NIC" style="rounded=0;whiteSpace=wrap;html=1;fillColor=#d5e8d4;strokeColor=#82b366;" parent="1" vertex="1">
          <mxGeometry x="350" y="250" width="50" height="30" as="geometry" />
        </mxCell>
        <mxCell id="ud-VxVPDWCNM-HSFa2yf-32" style="edgeStyle=orthogonalEdgeStyle;rounded=0;orthogonalLoop=1;jettySize=auto;html=1;entryX=0;entryY=0.5;entryDx=0;entryDy=0;" parent="1" source="ud-VxVPDWCNM-HSFa2yf-26" target="ud-VxVPDWCNM-HSFa2yf-21" edge="1">
          <mxGeometry relative="1" as="geometry" />
        </mxCell>
        <mxCell id="ud-VxVPDWCNM-HSFa2yf-26" value="Antenna 2 X USB" style="rounded=0;whiteSpace=wrap;html=1;fillColor=#ffe6cc;strokeColor=#d79b00;" parent="1" vertex="1">
          <mxGeometry x="150" y="190" width="140" height="30" as="geometry" />
        </mxCell>
        <mxCell id="ud-VxVPDWCNM-HSFa2yf-33" style="edgeStyle=orthogonalEdgeStyle;rounded=0;orthogonalLoop=1;jettySize=auto;html=1;entryX=0;entryY=0.5;entryDx=0;entryDy=0;" parent="1" source="ud-VxVPDWCNM-HSFa2yf-28" target="ud-VxVPDWCNM-HSFa2yf-23" edge="1">
          <mxGeometry relative="1" as="geometry" />
        </mxCell>
        <mxCell id="ud-VxVPDWCNM-HSFa2yf-28" value="Antenna 3 X USB" style="rounded=0;whiteSpace=wrap;html=1;fillColor=#ffe6cc;strokeColor=#d79b00;" parent="1" vertex="1">
          <mxGeometry x="150" y="220" width="140" height="30" as="geometry" />
        </mxCell>
        <mxCell id="ud-VxVPDWCNM-HSFa2yf-35" style="edgeStyle=orthogonalEdgeStyle;rounded=0;orthogonalLoop=1;jettySize=auto;html=1;entryX=0;entryY=0.5;entryDx=0;entryDy=0;" parent="1" source="ud-VxVPDWCNM-HSFa2yf-29" target="ud-VxVPDWCNM-HSFa2yf-24" edge="1">
          <mxGeometry relative="1" as="geometry" />
        </mxCell>
        <mxCell id="ud-VxVPDWCNM-HSFa2yf-29" value="Antenna 4 X USB" style="rounded=0;whiteSpace=wrap;html=1;fillColor=#ffe6cc;strokeColor=#d79b00;" parent="1" vertex="1">
          <mxGeometry x="150" y="250" width="140" height="30" as="geometry" />
        </mxCell>
        <mxCell id="ud-VxVPDWCNM-HSFa2yf-37" value="NIC" style="rounded=0;whiteSpace=wrap;html=1;fillColor=#d5e8d4;strokeColor=#82b366;" parent="1" vertex="1">
          <mxGeometry x="520" y="160" width="50" height="30" as="geometry" />
        </mxCell>
        <mxCell id="ud-VxVPDWCNM-HSFa2yf-38" value="NIC" style="rounded=0;whiteSpace=wrap;html=1;fillColor=#d5e8d4;strokeColor=#82b366;" parent="1" vertex="1">
          <mxGeometry x="520" y="190" width="50" height="30" as="geometry" />
        </mxCell>
        <mxCell id="ud-VxVPDWCNM-HSFa2yf-39" value="NIC" style="rounded=0;whiteSpace=wrap;html=1;fillColor=#d5e8d4;strokeColor=#82b366;" parent="1" vertex="1">
          <mxGeometry x="520" y="220" width="50" height="30" as="geometry" />
        </mxCell>
        <mxCell id="ud-VxVPDWCNM-HSFa2yf-40" value="NIC" style="rounded=0;whiteSpace=wrap;html=1;fillColor=#d5e8d4;strokeColor=#82b366;" parent="1" vertex="1">
          <mxGeometry x="520" y="250" width="50" height="30" as="geometry" />
        </mxCell>
        <mxCell id="ud-VxVPDWCNM-HSFa2yf-45" style="edgeStyle=orthogonalEdgeStyle;rounded=0;orthogonalLoop=1;jettySize=auto;html=1;" parent="1" source="ud-VxVPDWCNM-HSFa2yf-41" target="ud-VxVPDWCNM-HSFa2yf-37" edge="1">
          <mxGeometry relative="1" as="geometry" />
        </mxCell>
        <mxCell id="ud-VxVPDWCNM-HSFa2yf-41" value="Antenna 1 Y USB" style="rounded=0;whiteSpace=wrap;html=1;fillColor=#ffe6cc;strokeColor=#d79b00;" parent="1" vertex="1">
          <mxGeometry x="630" y="160" width="140" height="30" as="geometry" />
        </mxCell>
        <mxCell id="ud-VxVPDWCNM-HSFa2yf-46" style="edgeStyle=orthogonalEdgeStyle;rounded=0;orthogonalLoop=1;jettySize=auto;html=1;" parent="1" source="ud-VxVPDWCNM-HSFa2yf-42" target="ud-VxVPDWCNM-HSFa2yf-38" edge="1">
          <mxGeometry relative="1" as="geometry" />
        </mxCell>
        <mxCell id="ud-VxVPDWCNM-HSFa2yf-42" value="Antenna 2 Y USB" style="rounded=0;whiteSpace=wrap;html=1;fillColor=#ffe6cc;strokeColor=#d79b00;" parent="1" vertex="1">
          <mxGeometry x="630" y="190" width="140" height="30" as="geometry" />
        </mxCell>
        <mxCell id="ud-VxVPDWCNM-HSFa2yf-47" style="edgeStyle=orthogonalEdgeStyle;rounded=0;orthogonalLoop=1;jettySize=auto;html=1;" parent="1" source="ud-VxVPDWCNM-HSFa2yf-43" target="ud-VxVPDWCNM-HSFa2yf-39" edge="1">
          <mxGeometry relative="1" as="geometry" />
        </mxCell>
        <mxCell id="ud-VxVPDWCNM-HSFa2yf-43" value="Antenna 3 Y USB" style="rounded=0;whiteSpace=wrap;html=1;fillColor=#ffe6cc;strokeColor=#d79b00;" parent="1" vertex="1">
          <mxGeometry x="630" y="220" width="140" height="30" as="geometry" />
        </mxCell>
        <mxCell id="ud-VxVPDWCNM-HSFa2yf-48" style="edgeStyle=orthogonalEdgeStyle;rounded=0;orthogonalLoop=1;jettySize=auto;html=1;" parent="1" source="ud-VxVPDWCNM-HSFa2yf-44" target="ud-VxVPDWCNM-HSFa2yf-40" edge="1">
          <mxGeometry relative="1" as="geometry" />
        </mxCell>
        <mxCell id="ud-VxVPDWCNM-HSFa2yf-44" value="Antenna 4 Y USB" style="rounded=0;whiteSpace=wrap;html=1;fillColor=#ffe6cc;strokeColor=#d79b00;" parent="1" vertex="1">
          <mxGeometry x="630" y="250" width="140" height="30" as="geometry" />
        </mxCell>
        <mxCell id="ud-VxVPDWCNM-HSFa2yf-74" value="TPGS-PU&lt;div&gt;USB processor&lt;/div&gt;" style="whiteSpace=wrap;html=1;aspect=fixed;" parent="1" vertex="1">
          <mxGeometry x="400" y="320" width="120" height="120" as="geometry" />
        </mxCell>
        <mxCell id="ud-VxVPDWCNM-HSFa2yf-75" value="Antenna 1 X USB" style="rounded=0;whiteSpace=wrap;html=1;fillColor=#ffe6cc;strokeColor=#d79b00;" parent="1" vertex="1">
          <mxGeometry x="180" y="320" width="140" height="30" as="geometry" />
        </mxCell>
        <mxCell id="ud-VxVPDWCNM-HSFa2yf-76" value="Antenna 2 X USB" style="rounded=0;whiteSpace=wrap;html=1;fillColor=#ffe6cc;strokeColor=#d79b00;" parent="1" vertex="1">
          <mxGeometry x="180" y="350" width="140" height="30" as="geometry" />
        </mxCell>
        <mxCell id="ud-VxVPDWCNM-HSFa2yf-77" value="Antenna 3 X USB" style="rounded=0;whiteSpace=wrap;html=1;fillColor=#ffe6cc;strokeColor=#d79b00;" parent="1" vertex="1">
          <mxGeometry x="180" y="380" width="140" height="30" as="geometry" />
        </mxCell>
        <mxCell id="ud-VxVPDWCNM-HSFa2yf-78" value="Antenna 4 X USB" style="rounded=0;whiteSpace=wrap;html=1;fillColor=#ffe6cc;strokeColor=#d79b00;" parent="1" vertex="1">
          <mxGeometry x="180" y="410" width="140" height="30" as="geometry" />
        </mxCell>
        <mxCell id="ud-VxVPDWCNM-HSFa2yf-79" value="Antenna 1 Y USB" style="rounded=0;whiteSpace=wrap;html=1;fillColor=#ffe6cc;strokeColor=#d79b00;" parent="1" vertex="1">
          <mxGeometry x="600" y="320" width="140" height="30" as="geometry" />
        </mxCell>
        <mxCell id="ud-VxVPDWCNM-HSFa2yf-80" value="Antenna 2 Y USB" style="rounded=0;whiteSpace=wrap;html=1;fillColor=#ffe6cc;strokeColor=#d79b00;" parent="1" vertex="1">
          <mxGeometry x="600" y="350" width="140" height="30" as="geometry" />
        </mxCell>
        <mxCell id="ud-VxVPDWCNM-HSFa2yf-81" value="Antenna 3 Y USB" style="rounded=0;whiteSpace=wrap;html=1;fillColor=#ffe6cc;strokeColor=#d79b00;" parent="1" vertex="1">
          <mxGeometry x="600" y="380" width="140" height="30" as="geometry" />
        </mxCell>
        <mxCell id="ud-VxVPDWCNM-HSFa2yf-82" value="Antenna 4 Y USB" style="rounded=0;whiteSpace=wrap;html=1;fillColor=#ffe6cc;strokeColor=#d79b00;" parent="1" vertex="1">
          <mxGeometry x="600" y="410" width="140" height="30" as="geometry" />
        </mxCell>
        <mxCell id="ud-VxVPDWCNM-HSFa2yf-91" value="" style="edgeStyle=orthogonalEdgeStyle;rounded=0;orthogonalLoop=1;jettySize=auto;html=1;startArrow=classic;startFill=1;" parent="1" source="ud-VxVPDWCNM-HSFa2yf-84" target="ud-VxVPDWCNM-HSFa2yf-85" edge="1">
          <mxGeometry relative="1" as="geometry" />
        </mxCell>
        <mxCell id="ud-VxVPDWCNM-HSFa2yf-102" value="~0.595GB/s" style="edgeLabel;html=1;align=center;verticalAlign=middle;resizable=0;points=[];" parent="ud-VxVPDWCNM-HSFa2yf-91" vertex="1" connectable="0">
          <mxGeometry x="0.0283" y="-2" relative="1" as="geometry">
            <mxPoint x="-1" as="offset" />
          </mxGeometry>
        </mxCell>
        <mxCell id="ud-VxVPDWCNM-HSFa2yf-84" value="&lt;b&gt;TPGS-PU&lt;/b&gt;&lt;div&gt;2 SB processor&lt;/div&gt;" style="whiteSpace=wrap;html=1;aspect=fixed;" parent="1" vertex="1">
          <mxGeometry x="400" y="-360" width="120" height="120" as="geometry" />
        </mxCell>
        <mxCell id="ud-VxVPDWCNM-HSFa2yf-92" value="" style="edgeStyle=orthogonalEdgeStyle;rounded=0;orthogonalLoop=1;jettySize=auto;html=1;startArrow=classic;startFill=1;" parent="1" source="ud-VxVPDWCNM-HSFa2yf-85" target="ud-VxVPDWCNM-HSFa2yf-88" edge="1">
          <mxGeometry relative="1" as="geometry" />
        </mxCell>
        <mxCell id="ud-VxVPDWCNM-HSFa2yf-101" value="0.595GB/s" style="edgeLabel;html=1;align=center;verticalAlign=middle;resizable=0;points=[];" parent="ud-VxVPDWCNM-HSFa2yf-92" vertex="1" connectable="0">
          <mxGeometry x="-0.0152" y="-2" relative="1" as="geometry">
            <mxPoint as="offset" />
          </mxGeometry>
        </mxCell>
        <mxCell id="ud-VxVPDWCNM-HSFa2yf-85" value="&lt;b&gt;TPGS-CU&lt;/b&gt;&lt;div&gt;Bulkdata sender&lt;br&gt;&lt;div&gt;Joint partial results&lt;/div&gt;&lt;/div&gt;" style="whiteSpace=wrap;html=1;aspect=fixed;" parent="1" vertex="1">
          <mxGeometry x="613" y="-360" width="120" height="120" as="geometry" />
        </mxCell>
        <mxCell id="ud-VxVPDWCNM-HSFa2yf-89" value="" style="edgeStyle=orthogonalEdgeStyle;rounded=0;orthogonalLoop=1;jettySize=auto;html=1;" parent="1" source="ud-VxVPDWCNM-HSFa2yf-86" target="ud-VxVPDWCNM-HSFa2yf-87" edge="1">
          <mxGeometry relative="1" as="geometry" />
        </mxCell>
        <mxCell id="ud-VxVPDWCNM-HSFa2yf-86" value="&lt;b&gt;Antenna&lt;/b&gt;&lt;div&gt;4 elements&lt;/div&gt;&lt;div&gt;2 polarizations&lt;/div&gt;&lt;div&gt;2 side bands&lt;/div&gt;" style="whiteSpace=wrap;html=1;aspect=fixed;" parent="1" vertex="1">
          <mxGeometry y="-360" width="120" height="120" as="geometry" />
        </mxCell>
        <mxCell id="ud-VxVPDWCNM-HSFa2yf-90" value="" style="edgeStyle=orthogonalEdgeStyle;rounded=0;orthogonalLoop=1;jettySize=auto;html=1;" parent="1" source="ud-VxVPDWCNM-HSFa2yf-87" target="ud-VxVPDWCNM-HSFa2yf-84" edge="1">
          <mxGeometry relative="1" as="geometry" />
        </mxCell>
        <mxCell id="ud-VxVPDWCNM-HSFa2yf-95" value="2.2Tb/s" style="edgeLabel;html=1;align=center;verticalAlign=middle;resizable=0;points=[];" parent="ud-VxVPDWCNM-HSFa2yf-90" vertex="1" connectable="0">
          <mxGeometry x="-0.0761" y="-1" relative="1" as="geometry">
            <mxPoint as="offset" />
          </mxGeometry>
        </mxCell>
        <mxCell id="ud-VxVPDWCNM-HSFa2yf-87" value="&lt;b&gt;Digitizer&lt;/b&gt;&lt;div&gt;8x data streams&lt;/div&gt;&lt;div&gt;40GS/s&lt;/div&gt;&lt;div&gt;6bit&lt;/div&gt;&lt;div&gt;240Gb/s&lt;/div&gt;&lt;div&gt;13% overhead&lt;/div&gt;" style="whiteSpace=wrap;html=1;aspect=fixed;" parent="1" vertex="1">
          <mxGeometry x="200" y="-360" width="120" height="120" as="geometry" />
        </mxCell>
        <mxCell id="ud-VxVPDWCNM-HSFa2yf-88" value="&lt;b&gt;ARCHIVE&lt;/b&gt;&lt;div&gt;Bulkdata receiver&lt;/div&gt;" style="whiteSpace=wrap;html=1;aspect=fixed;" parent="1" vertex="1">
          <mxGeometry x="821" y="-360" width="120" height="120" as="geometry" />
        </mxCell>
        <mxCell id="ud-VxVPDWCNM-HSFa2yf-98" value="&lt;a href=&quot;https://almaobservatory.jamacloud.com/perspective.req#/items/30319?projectId=71&quot;&gt;Maximum data rate&lt;/a&gt;" style="text;html=1;align=center;verticalAlign=middle;resizable=0;points=[];autosize=1;strokeColor=none;fillColor=none;" parent="1" vertex="1">
          <mxGeometry x="710" y="-240" width="130" height="30" as="geometry" />
        </mxCell>
        <UserObject label="&lt;a href=&quot;https://confluence.alma.cl/display/ACAS/TPGS-CU+Requirements&quot;&gt;TPGS-CU Requirements&lt;/a&gt;" link="&lt;a href=&quot;https://confluence.alma.cl/display/ACAS/TPGS-CU+Requirements&quot;&gt;TPGS-CU Requirements &lt;/a&gt;" id="ud-VxVPDWCNM-HSFa2yf-104">
          <mxCell style="text;whiteSpace=wrap;html=1;" parent="1" vertex="1">
            <mxGeometry x="600" y="-390" width="150" height="40" as="geometry" />
          </mxCell>
        </UserObject>
        <mxCell id="ud-VxVPDWCNM-HSFa2yf-105" value="&lt;a href=&quot;https://confluence.alma.cl/display/ACAS/TPGS-PU+requirements&quot;&gt;TPGS-PU requirements&lt;/a&gt;" style="text;html=1;align=center;verticalAlign=middle;resizable=0;points=[];autosize=1;strokeColor=none;fillColor=none;" parent="1" vertex="1">
          <mxGeometry x="385" y="-391" width="150" height="30" as="geometry" />
        </mxCell>
        <mxCell id="ud-VxVPDWCNM-HSFa2yf-111" value="Antenna 1 X USB" style="rounded=0;whiteSpace=wrap;html=1;fillColor=#ffe6cc;strokeColor=#d79b00;" parent="1" vertex="1">
          <mxGeometry x="140" y="-150" width="140" height="30" as="geometry" />
        </mxCell>
        <mxCell id="ud-VxVPDWCNM-HSFa2yf-112" value="Antenna 2 X USB" style="rounded=0;whiteSpace=wrap;html=1;fillColor=#ffe6cc;strokeColor=#d79b00;" parent="1" vertex="1">
          <mxGeometry x="140" y="-120" width="140" height="30" as="geometry" />
        </mxCell>
        <mxCell id="ud-VxVPDWCNM-HSFa2yf-113" value="Antenna 3 X USB" style="rounded=0;whiteSpace=wrap;html=1;fillColor=#ffe6cc;strokeColor=#d79b00;" parent="1" vertex="1">
          <mxGeometry x="140" y="-90" width="140" height="30" as="geometry" />
        </mxCell>
        <mxCell id="ud-VxVPDWCNM-HSFa2yf-114" value="Antenna 4 X USB" style="rounded=0;whiteSpace=wrap;html=1;fillColor=#ffe6cc;strokeColor=#d79b00;" parent="1" vertex="1">
          <mxGeometry x="140" y="-60" width="140" height="30" as="geometry" />
        </mxCell>
        <mxCell id="ud-VxVPDWCNM-HSFa2yf-119" value="Antenna 1 Y USB" style="rounded=0;whiteSpace=wrap;html=1;fillColor=#ffe6cc;strokeColor=#d79b00;" parent="1" vertex="1">
          <mxGeometry x="140" y="-30" width="140" height="30" as="geometry" />
        </mxCell>
        <mxCell id="ud-VxVPDWCNM-HSFa2yf-120" value="Antenna 2 Y USB" style="rounded=0;whiteSpace=wrap;html=1;fillColor=#ffe6cc;strokeColor=#d79b00;" parent="1" vertex="1">
          <mxGeometry x="140" width="140" height="30" as="geometry" />
        </mxCell>
        <mxCell id="ud-VxVPDWCNM-HSFa2yf-121" value="Antenna 3 Y USB" style="rounded=0;whiteSpace=wrap;html=1;fillColor=#ffe6cc;strokeColor=#d79b00;" parent="1" vertex="1">
          <mxGeometry x="140" y="30" width="140" height="30" as="geometry" />
        </mxCell>
        <mxCell id="ud-VxVPDWCNM-HSFa2yf-122" value="Antenna 4 Y USB" style="rounded=0;whiteSpace=wrap;html=1;fillColor=#ffe6cc;strokeColor=#d79b00;" parent="1" vertex="1">
          <mxGeometry x="140" y="60" width="140" height="30" as="geometry" />
        </mxCell>
        <mxCell id="ud-VxVPDWCNM-HSFa2yf-123" value="&lt;b&gt;TPGS-CU&lt;/b&gt;" style="whiteSpace=wrap;html=1;aspect=fixed;" parent="1" vertex="1">
          <mxGeometry x="701" y="-100" width="120" height="120" as="geometry" />
        </mxCell>
        <mxCell id="ud-VxVPDWCNM-HSFa2yf-124" value="" style="shape=flexArrow;endArrow=classic;html=1;rounded=0;" parent="1" edge="1">
          <mxGeometry width="50" height="50" relative="1" as="geometry">
            <mxPoint x="300" y="-30.87" as="sourcePoint" />
            <mxPoint x="350" y="-30.87" as="targetPoint" />
          </mxGeometry>
        </mxCell>
        <mxCell id="ud-VxVPDWCNM-HSFa2yf-125" value="" style="shape=flexArrow;endArrow=classic;html=1;rounded=0;" parent="1" edge="1">
          <mxGeometry width="50" height="50" relative="1" as="geometry">
            <mxPoint x="620" y="-30.869999999999997" as="sourcePoint" />
            <mxPoint x="670" y="-30.869999999999997" as="targetPoint" />
          </mxGeometry>
        </mxCell>
        <mxCell id="ud-VxVPDWCNM-HSFa2yf-128" value="" style="rounded=0;whiteSpace=wrap;html=1;" parent="1" vertex="1">
          <mxGeometry x="425" y="-160" width="125" height="140" as="geometry" />
        </mxCell>
        <mxCell id="ud-VxVPDWCNM-HSFa2yf-129" value="PCIe sub domain" style="text;html=1;align=center;verticalAlign=middle;resizable=0;points=[];autosize=1;strokeColor=none;fillColor=none;" parent="1" vertex="1">
          <mxGeometry x="425" y="-160" width="120" height="30" as="geometry" />
        </mxCell>
        <mxCell id="ud-VxVPDWCNM-HSFa2yf-130" value="NIC" style="rounded=0;whiteSpace=wrap;html=1;fillColor=#d5e8d4;strokeColor=#82b366;" parent="1" vertex="1">
          <mxGeometry x="435" y="-130" width="50" height="30" as="geometry" />
        </mxCell>
        <mxCell id="ud-VxVPDWCNM-HSFa2yf-131" value="GPU" style="rounded=0;whiteSpace=wrap;html=1;fillColor=#f8cecc;strokeColor=#b85450;" parent="1" vertex="1">
          <mxGeometry x="485" y="-130" width="50" height="30" as="geometry" />
        </mxCell>
        <mxCell id="ud-VxVPDWCNM-HSFa2yf-132" value="" style="endArrow=classic;html=1;rounded=0;dashed=1;" parent="1" edge="1">
          <mxGeometry width="50" height="50" relative="1" as="geometry">
            <mxPoint x="455" y="-90" as="sourcePoint" />
            <mxPoint x="455" y="-30" as="targetPoint" />
          </mxGeometry>
        </mxCell>
        <mxCell id="ud-VxVPDWCNM-HSFa2yf-133" value="NNsub" style="edgeLabel;html=1;align=center;verticalAlign=middle;resizable=0;points=[];" parent="ud-VxVPDWCNM-HSFa2yf-132" vertex="1" connectable="0">
          <mxGeometry x="-0.1261" y="1" relative="1" as="geometry">
            <mxPoint as="offset" />
          </mxGeometry>
        </mxCell>
        <mxCell id="ud-VxVPDWCNM-HSFa2yf-134" value="" style="endArrow=classic;html=1;rounded=0;dashed=1;" parent="1" edge="1">
          <mxGeometry width="50" height="50" relative="1" as="geometry">
            <mxPoint x="515" y="-90" as="sourcePoint" />
            <mxPoint x="515" y="-30" as="targetPoint" />
          </mxGeometry>
        </mxCell>
        <mxCell id="ud-VxVPDWCNM-HSFa2yf-135" value="NGsub" style="edgeLabel;html=1;align=center;verticalAlign=middle;resizable=0;points=[];" parent="ud-VxVPDWCNM-HSFa2yf-134" vertex="1" connectable="0">
          <mxGeometry x="-0.3" y="3" relative="1" as="geometry">
            <mxPoint x="2" y="5" as="offset" />
          </mxGeometry>
        </mxCell>
        <mxCell id="ud-VxVPDWCNM-HSFa2yf-136" value="" style="endArrow=classic;html=1;rounded=0;dashed=1;" parent="1" edge="1">
          <mxGeometry width="50" height="50" relative="1" as="geometry">
            <mxPoint x="487.29" y="-15" as="sourcePoint" />
            <mxPoint x="487.29" y="45" as="targetPoint" />
          </mxGeometry>
        </mxCell>
        <mxCell id="ud-VxVPDWCNM-HSFa2yf-137" value="NS" style="edgeLabel;html=1;align=center;verticalAlign=middle;resizable=0;points=[];" parent="ud-VxVPDWCNM-HSFa2yf-136" vertex="1" connectable="0">
          <mxGeometry x="-0.1261" y="1" relative="1" as="geometry">
            <mxPoint as="offset" />
          </mxGeometry>
        </mxCell>
        <mxCell id="_3HtCh-4pzoijy-I_tJp-2" value="CPU" style="rounded=0;whiteSpace=wrap;html=1;fillColor=#dae8fc;strokeColor=#6c8ebf;" vertex="1" parent="1">
          <mxGeometry x="270" y="490" width="50" height="30" as="geometry" />
        </mxCell>
        <mxCell id="_3HtCh-4pzoijy-I_tJp-4" value="GPU" style="rounded=0;whiteSpace=wrap;html=1;fillColor=#f8cecc;strokeColor=#b85450;" vertex="1" parent="1">
          <mxGeometry x="350" y="490" width="50" height="30" as="geometry" />
        </mxCell>
        <mxCell id="_3HtCh-4pzoijy-I_tJp-5" value="NIC" style="rounded=0;whiteSpace=wrap;html=1;fillColor=#d5e8d4;strokeColor=#82b366;" vertex="1" parent="1">
          <mxGeometry x="190" y="490" width="50" height="30" as="geometry" />
        </mxCell>
        <mxCell id="_3HtCh-4pzoijy-I_tJp-7" value="GPU" style="rounded=0;whiteSpace=wrap;html=1;fillColor=#f8cecc;strokeColor=#b85450;" vertex="1" parent="1">
          <mxGeometry x="200" y="680" width="80" height="30" as="geometry" />
        </mxCell>
        <mxCell id="_3HtCh-4pzoijy-I_tJp-8" value="NIC" style="rounded=0;whiteSpace=wrap;html=1;fillColor=#d5e8d4;strokeColor=#82b366;" vertex="1" parent="1">
          <mxGeometry x="120" y="640" width="80" height="30" as="geometry" />
        </mxCell>
        <mxCell id="_3HtCh-4pzoijy-I_tJp-9" value="" style="endArrow=classic;html=1;rounded=0;" edge="1" parent="1">
          <mxGeometry width="50" height="50" relative="1" as="geometry">
            <mxPoint x="120" y="770" as="sourcePoint" />
            <mxPoint x="600" y="770" as="targetPoint" />
          </mxGeometry>
        </mxCell>
        <mxCell id="_3HtCh-4pzoijy-I_tJp-10" value="GPU" style="rounded=0;whiteSpace=wrap;html=1;fillColor=#f8cecc;strokeColor=#b85450;" vertex="1" parent="1">
          <mxGeometry x="360" y="680" width="80" height="30" as="geometry" />
        </mxCell>
        <mxCell id="_3HtCh-4pzoijy-I_tJp-14" value="CPU" style="rounded=0;whiteSpace=wrap;html=1;fillColor=#dae8fc;strokeColor=#6c8ebf;" vertex="1" parent="1">
          <mxGeometry x="440" y="720" width="80" height="30" as="geometry" />
        </mxCell>
        <mxCell id="_3HtCh-4pzoijy-I_tJp-15" value="" style="endArrow=classic;html=1;rounded=0;" edge="1" parent="1">
          <mxGeometry width="50" height="50" relative="1" as="geometry">
            <mxPoint x="130" y="630" as="sourcePoint" />
            <mxPoint x="180" y="630" as="targetPoint" />
          </mxGeometry>
        </mxCell>
        <mxCell id="_3HtCh-4pzoijy-I_tJp-16" value="pkt_recv" style="edgeLabel;html=1;align=center;verticalAlign=middle;resizable=0;points=[];" vertex="1" connectable="0" parent="_3HtCh-4pzoijy-I_tJp-15">
          <mxGeometry x="-0.3219" y="-1" relative="1" as="geometry">
            <mxPoint as="offset" />
          </mxGeometry>
        </mxCell>
        <mxCell id="_3HtCh-4pzoijy-I_tJp-17" value="CPU" style="rounded=0;whiteSpace=wrap;html=1;fillColor=#dae8fc;strokeColor=#6c8ebf;" vertex="1" parent="1">
          <mxGeometry x="280" y="720" width="80" height="30" as="geometry" />
        </mxCell>
        <mxCell id="_3HtCh-4pzoijy-I_tJp-19" value="" style="endArrow=classic;html=1;rounded=0;" edge="1" parent="1">
          <mxGeometry width="50" height="50" relative="1" as="geometry">
            <mxPoint x="210" y="670" as="sourcePoint" />
            <mxPoint x="260" y="670" as="targetPoint" />
          </mxGeometry>
        </mxCell>
        <mxCell id="_3HtCh-4pzoijy-I_tJp-20" value="DMA" style="edgeLabel;html=1;align=center;verticalAlign=middle;resizable=0;points=[];" vertex="1" connectable="0" parent="_3HtCh-4pzoijy-I_tJp-19">
          <mxGeometry x="-0.3219" y="-1" relative="1" as="geometry">
            <mxPoint as="offset" />
          </mxGeometry>
        </mxCell>
        <mxCell id="_3HtCh-4pzoijy-I_tJp-21" value="" style="endArrow=classic;html=1;rounded=0;" edge="1" parent="1">
          <mxGeometry width="50" height="50" relative="1" as="geometry">
            <mxPoint x="290" y="710" as="sourcePoint" />
            <mxPoint x="340" y="710" as="targetPoint" />
          </mxGeometry>
        </mxCell>
        <mxCell id="_3HtCh-4pzoijy-I_tJp-22" value="stm_bgn" style="edgeLabel;html=1;align=center;verticalAlign=middle;resizable=0;points=[];" vertex="1" connectable="0" parent="_3HtCh-4pzoijy-I_tJp-21">
          <mxGeometry x="-0.3219" y="-1" relative="1" as="geometry">
            <mxPoint as="offset" />
          </mxGeometry>
        </mxCell>
        <mxCell id="_3HtCh-4pzoijy-I_tJp-26" value="" style="endArrow=classic;html=1;rounded=0;" edge="1" parent="1">
          <mxGeometry width="50" height="50" relative="1" as="geometry">
            <mxPoint x="370" y="670" as="sourcePoint" />
            <mxPoint x="420" y="670" as="targetPoint" />
          </mxGeometry>
        </mxCell>
        <mxCell id="_3HtCh-4pzoijy-I_tJp-27" value="ker_exe" style="edgeLabel;html=1;align=center;verticalAlign=middle;resizable=0;points=[];" vertex="1" connectable="0" parent="_3HtCh-4pzoijy-I_tJp-26">
          <mxGeometry x="-0.3219" y="-1" relative="1" as="geometry">
            <mxPoint as="offset" />
          </mxGeometry>
        </mxCell>
        <mxCell id="_3HtCh-4pzoijy-I_tJp-28" value="" style="endArrow=classic;html=1;rounded=0;" edge="1" parent="1">
          <mxGeometry width="50" height="50" relative="1" as="geometry">
            <mxPoint x="450" y="709.6" as="sourcePoint" />
            <mxPoint x="500" y="709.6" as="targetPoint" />
          </mxGeometry>
        </mxCell>
        <mxCell id="_3HtCh-4pzoijy-I_tJp-29" value="stm_end" style="edgeLabel;html=1;align=center;verticalAlign=middle;resizable=0;points=[];" vertex="1" connectable="0" parent="_3HtCh-4pzoijy-I_tJp-28">
          <mxGeometry x="-0.3219" y="-1" relative="1" as="geometry">
            <mxPoint as="offset" />
          </mxGeometry>
        </mxCell>
        <mxCell id="_3HtCh-4pzoijy-I_tJp-30" value="GPU" style="rounded=0;whiteSpace=wrap;html=1;fillColor=#f8cecc;strokeColor=#b85450;" vertex="1" parent="1">
          <mxGeometry x="200" y="920" width="80" height="30" as="geometry" />
        </mxCell>
        <mxCell id="_3HtCh-4pzoijy-I_tJp-31" value="NIC" style="rounded=0;whiteSpace=wrap;html=1;fillColor=#d5e8d4;strokeColor=#82b366;" vertex="1" parent="1">
          <mxGeometry x="120" y="880" width="80" height="30" as="geometry" />
        </mxCell>
        <mxCell id="_3HtCh-4pzoijy-I_tJp-32" value="" style="endArrow=classic;html=1;rounded=0;" edge="1" parent="1">
          <mxGeometry width="50" height="50" relative="1" as="geometry">
            <mxPoint x="120" y="1010" as="sourcePoint" />
            <mxPoint x="440" y="1010" as="targetPoint" />
          </mxGeometry>
        </mxCell>
        <mxCell id="_3HtCh-4pzoijy-I_tJp-33" value="GPU" style="rounded=0;whiteSpace=wrap;html=1;fillColor=#f8cecc;strokeColor=#b85450;" vertex="1" parent="1">
          <mxGeometry x="280" y="920" width="80" height="30" as="geometry" />
        </mxCell>
        <mxCell id="_3HtCh-4pzoijy-I_tJp-34" value="CPU" style="rounded=0;whiteSpace=wrap;html=1;fillColor=#dae8fc;strokeColor=#6c8ebf;" vertex="1" parent="1">
          <mxGeometry x="40" y="960" width="80" height="30" as="geometry" />
        </mxCell>
        <mxCell id="_3HtCh-4pzoijy-I_tJp-35" value="" style="endArrow=classic;html=1;rounded=0;" edge="1" parent="1">
          <mxGeometry width="50" height="50" relative="1" as="geometry">
            <mxPoint x="130" y="870" as="sourcePoint" />
            <mxPoint x="180" y="870" as="targetPoint" />
          </mxGeometry>
        </mxCell>
        <mxCell id="_3HtCh-4pzoijy-I_tJp-36" value="pkt_recv" style="edgeLabel;html=1;align=center;verticalAlign=middle;resizable=0;points=[];" vertex="1" connectable="0" parent="_3HtCh-4pzoijy-I_tJp-35">
          <mxGeometry x="-0.3219" y="-1" relative="1" as="geometry">
            <mxPoint as="offset" />
          </mxGeometry>
        </mxCell>
        <mxCell id="_3HtCh-4pzoijy-I_tJp-38" value="" style="endArrow=classic;html=1;rounded=0;" edge="1" parent="1">
          <mxGeometry width="50" height="50" relative="1" as="geometry">
            <mxPoint x="210" y="910" as="sourcePoint" />
            <mxPoint x="260" y="910" as="targetPoint" />
          </mxGeometry>
        </mxCell>
        <mxCell id="_3HtCh-4pzoijy-I_tJp-39" value="DMA" style="edgeLabel;html=1;align=center;verticalAlign=middle;resizable=0;points=[];" vertex="1" connectable="0" parent="_3HtCh-4pzoijy-I_tJp-38">
          <mxGeometry x="-0.3219" y="-1" relative="1" as="geometry">
            <mxPoint as="offset" />
          </mxGeometry>
        </mxCell>
        <mxCell id="_3HtCh-4pzoijy-I_tJp-40" value="" style="endArrow=classic;html=1;rounded=0;" edge="1" parent="1">
          <mxGeometry width="50" height="50" relative="1" as="geometry">
            <mxPoint x="55" y="960" as="sourcePoint" />
            <mxPoint x="105" y="960" as="targetPoint" />
          </mxGeometry>
        </mxCell>
        <mxCell id="_3HtCh-4pzoijy-I_tJp-41" value="ker_call" style="edgeLabel;html=1;align=center;verticalAlign=middle;resizable=0;points=[];" vertex="1" connectable="0" parent="_3HtCh-4pzoijy-I_tJp-40">
          <mxGeometry x="-0.3219" y="-1" relative="1" as="geometry">
            <mxPoint y="-10" as="offset" />
          </mxGeometry>
        </mxCell>
        <mxCell id="_3HtCh-4pzoijy-I_tJp-42" value="" style="endArrow=classic;html=1;rounded=0;" edge="1" parent="1">
          <mxGeometry width="50" height="50" relative="1" as="geometry">
            <mxPoint x="295" y="910" as="sourcePoint" />
            <mxPoint x="345" y="910" as="targetPoint" />
          </mxGeometry>
        </mxCell>
        <mxCell id="_3HtCh-4pzoijy-I_tJp-43" value="data_prc" style="edgeLabel;html=1;align=center;verticalAlign=middle;resizable=0;points=[];" vertex="1" connectable="0" parent="_3HtCh-4pzoijy-I_tJp-42">
          <mxGeometry x="-0.3219" y="-1" relative="1" as="geometry">
            <mxPoint as="offset" />
          </mxGeometry>
        </mxCell>
        <mxCell id="_3HtCh-4pzoijy-I_tJp-44" value="" style="endArrow=classic;html=1;rounded=0;" edge="1" parent="1">
          <mxGeometry width="50" height="50" relative="1" as="geometry">
            <mxPoint x="375" y="960" as="sourcePoint" />
            <mxPoint x="425" y="960" as="targetPoint" />
          </mxGeometry>
        </mxCell>
        <mxCell id="_3HtCh-4pzoijy-I_tJp-45" value="notification" style="edgeLabel;html=1;align=center;verticalAlign=middle;resizable=0;points=[];" vertex="1" connectable="0" parent="_3HtCh-4pzoijy-I_tJp-44">
          <mxGeometry x="-0.3219" y="-1" relative="1" as="geometry">
            <mxPoint x="-2" y="-11" as="offset" />
          </mxGeometry>
        </mxCell>
        <mxCell id="_3HtCh-4pzoijy-I_tJp-46" value="NIC" style="rounded=0;whiteSpace=wrap;html=1;fillColor=#d5e8d4;strokeColor=#82b366;" vertex="1" parent="1">
          <mxGeometry x="520" y="640" width="80" height="30" as="geometry" />
        </mxCell>
        <mxCell id="_3HtCh-4pzoijy-I_tJp-47" value="" style="endArrow=classic;html=1;rounded=0;" edge="1" parent="1">
          <mxGeometry width="50" height="50" relative="1" as="geometry">
            <mxPoint x="530" y="630" as="sourcePoint" />
            <mxPoint x="580" y="630" as="targetPoint" />
          </mxGeometry>
        </mxCell>
        <mxCell id="_3HtCh-4pzoijy-I_tJp-48" value="pkt_send" style="edgeLabel;html=1;align=center;verticalAlign=middle;resizable=0;points=[];" vertex="1" connectable="0" parent="_3HtCh-4pzoijy-I_tJp-47">
          <mxGeometry x="-0.3219" y="-1" relative="1" as="geometry">
            <mxPoint as="offset" />
          </mxGeometry>
        </mxCell>
        <mxCell id="_3HtCh-4pzoijy-I_tJp-49" value="NIC" style="rounded=0;whiteSpace=wrap;html=1;fillColor=#d5e8d4;strokeColor=#82b366;" vertex="1" parent="1">
          <mxGeometry x="360" y="880" width="80" height="30" as="geometry" />
        </mxCell>
        <mxCell id="_3HtCh-4pzoijy-I_tJp-50" value="" style="endArrow=classic;html=1;rounded=0;" edge="1" parent="1">
          <mxGeometry width="50" height="50" relative="1" as="geometry">
            <mxPoint x="375" y="870" as="sourcePoint" />
            <mxPoint x="425" y="870" as="targetPoint" />
          </mxGeometry>
        </mxCell>
        <mxCell id="_3HtCh-4pzoijy-I_tJp-51" value="pkt_send" style="edgeLabel;html=1;align=center;verticalAlign=middle;resizable=0;points=[];" vertex="1" connectable="0" parent="_3HtCh-4pzoijy-I_tJp-50">
          <mxGeometry x="-0.3219" y="-1" relative="1" as="geometry">
            <mxPoint as="offset" />
          </mxGeometry>
        </mxCell>
        <mxCell id="_3HtCh-4pzoijy-I_tJp-52" value="CPU" style="rounded=0;whiteSpace=wrap;html=1;fillColor=#dae8fc;strokeColor=#6c8ebf;" vertex="1" parent="1">
          <mxGeometry x="360" y="960" width="80" height="30" as="geometry" />
        </mxCell>
        <mxCell id="_3HtCh-4pzoijy-I_tJp-73" value="GPU" style="rounded=0;whiteSpace=wrap;html=1;fillColor=#f8cecc;strokeColor=#b85450;" vertex="1" parent="1">
          <mxGeometry x="200" y="1200" width="80" height="30" as="geometry" />
        </mxCell>
        <mxCell id="_3HtCh-4pzoijy-I_tJp-74" value="NIC" style="rounded=0;whiteSpace=wrap;html=1;fillColor=#d5e8d4;strokeColor=#82b366;" vertex="1" parent="1">
          <mxGeometry x="120" y="1160" width="80" height="30" as="geometry" />
        </mxCell>
        <mxCell id="_3HtCh-4pzoijy-I_tJp-75" value="" style="endArrow=classic;html=1;rounded=0;" edge="1" parent="1">
          <mxGeometry width="50" height="50" relative="1" as="geometry">
            <mxPoint x="120" y="1290" as="sourcePoint" />
            <mxPoint x="520" y="1290" as="targetPoint" />
          </mxGeometry>
        </mxCell>
        <mxCell id="_3HtCh-4pzoijy-I_tJp-76" value="GPU" style="rounded=0;whiteSpace=wrap;html=1;fillColor=#f8cecc;strokeColor=#b85450;" vertex="1" parent="1">
          <mxGeometry x="280" y="1200" width="80" height="30" as="geometry" />
        </mxCell>
        <mxCell id="_3HtCh-4pzoijy-I_tJp-77" value="CPU" style="rounded=0;whiteSpace=wrap;html=1;fillColor=#dae8fc;strokeColor=#6c8ebf;" vertex="1" parent="1">
          <mxGeometry x="40" y="1250" width="80" height="30" as="geometry" />
        </mxCell>
        <mxCell id="_3HtCh-4pzoijy-I_tJp-78" value="" style="endArrow=classic;html=1;rounded=0;" edge="1" parent="1">
          <mxGeometry width="50" height="50" relative="1" as="geometry">
            <mxPoint x="130" y="1150" as="sourcePoint" />
            <mxPoint x="180" y="1150" as="targetPoint" />
          </mxGeometry>
        </mxCell>
        <mxCell id="_3HtCh-4pzoijy-I_tJp-79" value="pkt_recv" style="edgeLabel;html=1;align=center;verticalAlign=middle;resizable=0;points=[];" vertex="1" connectable="0" parent="_3HtCh-4pzoijy-I_tJp-78">
          <mxGeometry x="-0.3219" y="-1" relative="1" as="geometry">
            <mxPoint as="offset" />
          </mxGeometry>
        </mxCell>
        <mxCell id="_3HtCh-4pzoijy-I_tJp-80" value="" style="endArrow=classic;html=1;rounded=0;" edge="1" parent="1">
          <mxGeometry width="50" height="50" relative="1" as="geometry">
            <mxPoint x="210" y="1190" as="sourcePoint" />
            <mxPoint x="260" y="1190" as="targetPoint" />
          </mxGeometry>
        </mxCell>
        <mxCell id="_3HtCh-4pzoijy-I_tJp-81" value="DMA" style="edgeLabel;html=1;align=center;verticalAlign=middle;resizable=0;points=[];" vertex="1" connectable="0" parent="_3HtCh-4pzoijy-I_tJp-80">
          <mxGeometry x="-0.3219" y="-1" relative="1" as="geometry">
            <mxPoint as="offset" />
          </mxGeometry>
        </mxCell>
        <mxCell id="_3HtCh-4pzoijy-I_tJp-82" value="" style="endArrow=classic;html=1;rounded=0;" edge="1" parent="1">
          <mxGeometry width="50" height="50" relative="1" as="geometry">
            <mxPoint x="55" y="1240" as="sourcePoint" />
            <mxPoint x="105" y="1240" as="targetPoint" />
          </mxGeometry>
        </mxCell>
        <mxCell id="_3HtCh-4pzoijy-I_tJp-83" value="ker_call" style="edgeLabel;html=1;align=center;verticalAlign=middle;resizable=0;points=[];" vertex="1" connectable="0" parent="_3HtCh-4pzoijy-I_tJp-82">
          <mxGeometry x="-0.3219" y="-1" relative="1" as="geometry">
            <mxPoint as="offset" />
          </mxGeometry>
        </mxCell>
        <mxCell id="_3HtCh-4pzoijy-I_tJp-84" value="" style="endArrow=classic;html=1;rounded=0;" edge="1" parent="1">
          <mxGeometry width="50" height="50" relative="1" as="geometry">
            <mxPoint x="295" y="1190" as="sourcePoint" />
            <mxPoint x="345" y="1190" as="targetPoint" />
          </mxGeometry>
        </mxCell>
        <mxCell id="_3HtCh-4pzoijy-I_tJp-85" value="prc_time" style="edgeLabel;html=1;align=center;verticalAlign=middle;resizable=0;points=[];" vertex="1" connectable="0" parent="_3HtCh-4pzoijy-I_tJp-84">
          <mxGeometry x="-0.3219" y="-1" relative="1" as="geometry">
            <mxPoint as="offset" />
          </mxGeometry>
        </mxCell>
        <mxCell id="_3HtCh-4pzoijy-I_tJp-86" value="" style="endArrow=classic;html=1;rounded=0;" edge="1" parent="1">
          <mxGeometry width="50" height="50" relative="1" as="geometry">
            <mxPoint x="375" y="1230" as="sourcePoint" />
            <mxPoint x="425" y="1230" as="targetPoint" />
          </mxGeometry>
        </mxCell>
        <mxCell id="_3HtCh-4pzoijy-I_tJp-87" value="job_end" style="edgeLabel;html=1;align=center;verticalAlign=middle;resizable=0;points=[];" vertex="1" connectable="0" parent="_3HtCh-4pzoijy-I_tJp-86">
          <mxGeometry x="-0.3219" y="-1" relative="1" as="geometry">
            <mxPoint x="-2" y="-1" as="offset" />
          </mxGeometry>
        </mxCell>
        <mxCell id="_3HtCh-4pzoijy-I_tJp-88" value="NIC" style="rounded=0;whiteSpace=wrap;html=1;fillColor=#d5e8d4;strokeColor=#82b366;" vertex="1" parent="1">
          <mxGeometry x="360" y="1160" width="80" height="30" as="geometry" />
        </mxCell>
        <mxCell id="_3HtCh-4pzoijy-I_tJp-89" value="" style="endArrow=classic;html=1;rounded=0;" edge="1" parent="1">
          <mxGeometry width="50" height="50" relative="1" as="geometry">
            <mxPoint x="370" y="1150" as="sourcePoint" />
            <mxPoint x="420" y="1150" as="targetPoint" />
          </mxGeometry>
        </mxCell>
        <mxCell id="_3HtCh-4pzoijy-I_tJp-90" value="pkt_send" style="edgeLabel;html=1;align=center;verticalAlign=middle;resizable=0;points=[];" vertex="1" connectable="0" parent="_3HtCh-4pzoijy-I_tJp-89">
          <mxGeometry x="-0.3219" y="-1" relative="1" as="geometry">
            <mxPoint as="offset" />
          </mxGeometry>
        </mxCell>
        <mxCell id="_3HtCh-4pzoijy-I_tJp-91" value="CPU" style="rounded=0;whiteSpace=wrap;html=1;fillColor=#dae8fc;strokeColor=#6c8ebf;" vertex="1" parent="1">
          <mxGeometry x="370" y="1250" width="80" height="30" as="geometry" />
        </mxCell>
        <mxCell id="_3HtCh-4pzoijy-I_tJp-95" value="" style="curved=1;endArrow=classic;html=1;rounded=0;" edge="1" parent="1">
          <mxGeometry width="50" height="50" relative="1" as="geometry">
            <mxPoint x="260" y="900" as="sourcePoint" />
            <mxPoint x="320" y="900" as="targetPoint" />
            <Array as="points">
              <mxPoint x="270" y="880" />
              <mxPoint x="310" y="880" />
            </Array>
          </mxGeometry>
        </mxCell>
        <mxCell id="_3HtCh-4pzoijy-I_tJp-97" value="polling&lt;div&gt;event&lt;/div&gt;" style="edgeLabel;html=1;align=center;verticalAlign=middle;resizable=0;points=[];" vertex="1" connectable="0" parent="_3HtCh-4pzoijy-I_tJp-95">
          <mxGeometry x="0.1333" y="-1" relative="1" as="geometry">
            <mxPoint as="offset" />
          </mxGeometry>
        </mxCell>
        <mxCell id="_3HtCh-4pzoijy-I_tJp-98" value="" style="curved=1;endArrow=classic;html=1;rounded=0;" edge="1" parent="1">
          <mxGeometry width="50" height="50" relative="1" as="geometry">
            <mxPoint x="250" y="660" as="sourcePoint" />
            <mxPoint x="310" y="660" as="targetPoint" />
            <Array as="points">
              <mxPoint x="260" y="640" />
              <mxPoint x="300" y="640" />
            </Array>
          </mxGeometry>
        </mxCell>
        <mxCell id="_3HtCh-4pzoijy-I_tJp-99" value="polling&lt;div&gt;event&lt;/div&gt;" style="edgeLabel;html=1;align=center;verticalAlign=middle;resizable=0;points=[];" vertex="1" connectable="0" parent="_3HtCh-4pzoijy-I_tJp-98">
          <mxGeometry x="0.1333" y="-1" relative="1" as="geometry">
            <mxPoint as="offset" />
          </mxGeometry>
        </mxCell>
        <mxCell id="_3HtCh-4pzoijy-I_tJp-122" value="Calling the persistent kernel" style="text;html=1;align=left;verticalAlign=middle;whiteSpace=wrap;rounded=0;fillColor=#f5f5f5;fontColor=#333333;strokeColor=#666666;" vertex="1" parent="1">
          <mxGeometry x="40" y="1000" width="60" height="40" as="geometry" />
        </mxCell>
        <mxCell id="_3HtCh-4pzoijy-I_tJp-126" value="Repetitive interval" style="text;html=1;align=center;verticalAlign=middle;resizable=0;points=[];autosize=1;strokeColor=none;fillColor=none;" vertex="1" parent="1">
          <mxGeometry x="240" y="1010" width="120" height="30" as="geometry" />
        </mxCell>
        <mxCell id="_3HtCh-4pzoijy-I_tJp-127" value="Repetitive interval" style="text;html=1;align=center;verticalAlign=middle;resizable=0;points=[];autosize=1;strokeColor=none;fillColor=none;" vertex="1" parent="1">
          <mxGeometry x="240" y="770" width="120" height="30" as="geometry" />
        </mxCell>
        <mxCell id="_3HtCh-4pzoijy-I_tJp-128" value="" style="endArrow=none;dashed=1;html=1;dashPattern=1 3;strokeWidth=2;rounded=0;" edge="1" parent="1">
          <mxGeometry width="50" height="50" relative="1" as="geometry">
            <mxPoint x="120" y="800" as="sourcePoint" />
            <mxPoint x="120" y="600" as="targetPoint" />
          </mxGeometry>
        </mxCell>
        <mxCell id="_3HtCh-4pzoijy-I_tJp-129" value="" style="endArrow=none;dashed=1;html=1;dashPattern=1 3;strokeWidth=2;rounded=0;" edge="1" parent="1">
          <mxGeometry width="50" height="50" relative="1" as="geometry">
            <mxPoint x="120" y="1040" as="sourcePoint" />
            <mxPoint x="120" y="840" as="targetPoint" />
          </mxGeometry>
        </mxCell>
        <mxCell id="_3HtCh-4pzoijy-I_tJp-130" value="" style="endArrow=classic;html=1;rounded=0;" edge="1" parent="1">
          <mxGeometry width="50" height="50" relative="1" as="geometry">
            <mxPoint x="160" y="690" as="sourcePoint" />
            <mxPoint x="210" y="740" as="targetPoint" />
          </mxGeometry>
        </mxCell>
        <mxCell id="_3HtCh-4pzoijy-I_tJp-131" value="CPU losses the capability of dinamically allocate resources on kernel exevution" style="text;html=1;align=center;verticalAlign=middle;whiteSpace=wrap;rounded=0;" vertex="1" parent="1">
          <mxGeometry x="125" y="970" width="230" height="30" as="geometry" />
        </mxCell>
        <mxCell id="_3HtCh-4pzoijy-I_tJp-132" value="&lt;div style=&quot;text-align: left;&quot;&gt;&lt;span style=&quot;background-color: transparent; color: light-dark(rgb(0, 0, 0), rgb(255, 255, 255));&quot;&gt;CPU will be only notified.&lt;/span&gt;&lt;/div&gt;&lt;div&gt;&lt;span style=&quot;background-color: transparent; color: light-dark(rgb(0, 0, 0), rgb(255, 255, 255));&quot;&gt;Flow is completely isolated&amp;nbsp;&lt;/span&gt;&lt;/div&gt;" style="text;html=1;align=center;verticalAlign=middle;whiteSpace=wrap;rounded=0;fillColor=#f5f5f5;strokeColor=#666666;fontColor=#333333;" vertex="1" parent="1">
          <mxGeometry x="265" y="1040" width="160" height="30" as="geometry" />
        </mxCell>
        <mxCell id="_3HtCh-4pzoijy-I_tJp-133" value="" style="endArrow=none;dashed=1;html=1;dashPattern=1 3;strokeWidth=2;rounded=0;" edge="1" parent="1">
          <mxGeometry width="50" height="50" relative="1" as="geometry">
            <mxPoint x="440" y="1040" as="sourcePoint" />
            <mxPoint x="440" y="840" as="targetPoint" />
          </mxGeometry>
        </mxCell>
        <mxCell id="_3HtCh-4pzoijy-I_tJp-135" value="" style="endArrow=classic;html=1;rounded=0;" edge="1" parent="1">
          <mxGeometry width="50" height="50" relative="1" as="geometry">
            <mxPoint x="450" y="694.9" as="sourcePoint" />
            <mxPoint x="500" y="694.9" as="targetPoint" />
          </mxGeometry>
        </mxCell>
        <mxCell id="_3HtCh-4pzoijy-I_tJp-136" value="memcpy" style="edgeLabel;html=1;align=center;verticalAlign=middle;resizable=0;points=[];" vertex="1" connectable="0" parent="_3HtCh-4pzoijy-I_tJp-135">
          <mxGeometry x="-0.3219" y="-1" relative="1" as="geometry">
            <mxPoint as="offset" />
          </mxGeometry>
        </mxCell>
        <mxCell id="_3HtCh-4pzoijy-I_tJp-138" value="" style="endArrow=classic;html=1;rounded=0;" edge="1" parent="1">
          <mxGeometry width="50" height="50" relative="1" as="geometry">
            <mxPoint x="290" y="695" as="sourcePoint" />
            <mxPoint x="340" y="695" as="targetPoint" />
          </mxGeometry>
        </mxCell>
        <mxCell id="_3HtCh-4pzoijy-I_tJp-139" value="ker_call" style="edgeLabel;html=1;align=center;verticalAlign=middle;resizable=0;points=[];" vertex="1" connectable="0" parent="_3HtCh-4pzoijy-I_tJp-138">
          <mxGeometry x="-0.3219" y="-1" relative="1" as="geometry">
            <mxPoint as="offset" />
          </mxGeometry>
        </mxCell>
        <mxCell id="_3HtCh-4pzoijy-I_tJp-144" value="CPU" style="rounded=0;whiteSpace=wrap;html=1;fillColor=#dae8fc;strokeColor=#6c8ebf;" vertex="1" parent="1">
          <mxGeometry x="440" y="960" width="80" height="30" as="geometry" />
        </mxCell>
        <mxCell id="_3HtCh-4pzoijy-I_tJp-145" value="" style="endArrow=classic;html=1;rounded=0;" edge="1" parent="1">
          <mxGeometry width="50" height="50" relative="1" as="geometry">
            <mxPoint x="455" y="960" as="sourcePoint" />
            <mxPoint x="505" y="960" as="targetPoint" />
          </mxGeometry>
        </mxCell>
        <mxCell id="_3HtCh-4pzoijy-I_tJp-146" value="ker_end" style="edgeLabel;html=1;align=center;verticalAlign=middle;resizable=0;points=[];" vertex="1" connectable="0" parent="_3HtCh-4pzoijy-I_tJp-145">
          <mxGeometry x="-0.3219" y="-1" relative="1" as="geometry">
            <mxPoint y="-10" as="offset" />
          </mxGeometry>
        </mxCell>
        <mxCell id="_3HtCh-4pzoijy-I_tJp-147" value="CPU still controls&amp;nbsp;&lt;span style=&quot;background-color: transparent; color: light-dark(rgb(51, 51, 51), rgb(193, 193, 193));&quot;&gt;kernel execution&lt;/span&gt;" style="text;html=1;align=left;verticalAlign=middle;whiteSpace=wrap;rounded=0;fillColor=#f5f5f5;fontColor=#333333;strokeColor=#666666;" vertex="1" parent="1">
          <mxGeometry x="445" y="1000" width="135" height="40" as="geometry" />
        </mxCell>
        <mxCell id="_3HtCh-4pzoijy-I_tJp-148" value="" style="endArrow=none;dashed=1;html=1;dashPattern=1 3;strokeWidth=2;rounded=0;" edge="1" parent="1">
          <mxGeometry width="50" height="50" relative="1" as="geometry">
            <mxPoint x="599.23" y="800" as="sourcePoint" />
            <mxPoint x="599.23" y="600" as="targetPoint" />
          </mxGeometry>
        </mxCell>
      </root>
    </mxGraphModel>
  </diagram>
</mxfile>
